<?xml version="1.0" standalone="no"?>
<!DOCTYPE svg PUBLIC "-//W3C//DTD SVG 1.1//EN" 
"http://www.w3.org/Graphics/SVG/1.1/DTD/svg11.dtd">

<svg xmlns="http://www.w3.org/2000/svg" version="1.1" width="700" height="400" viewBox="0 0 700 400">
	<g id="charts">
		<g id="humidityChart" transform="translate(200, 200)"></g>
		<g id="temperatureChart" transform="translate(550, 100)"></g>
		<g id="luminosityChart" transform="translate(550, 300)"></g>
	</g>
	<g id="grids"></g>
	<g id="foreground" style="opacity: 0.5;">
		
		<g class="plant" id="plant1" style="stroke: white;">
			<path d="M 200 300 C 200 300 200 293.75 200 278.125 C 200 262.5 150 250 150 250 L 150 250 C 150 250 162.5 300 178.125 300 C 193.75 300 200 300 200 300 Z M 150 250 C 150 250 150 250 150 250 Z" fill="black"/>
			<path d="M 250 300 L 250 300 C 250 300 250 300 250 300 Z M 250 300 C 250 300 200 312.5 200 328.125 C 200 343.75 200 350 200 350 C 200 350 206.25 350 221.875 350 C 237.5 350 250 300 250 300 Z M 250 300 Z" fill="black"/>
			<rect x="197.5" y="230" width="5" height="150" fill="black"/>
			<path d="M 236.96246 236.60226 C 238.54098 234.92484 239.44479 232.581 239.56142 229.68317 C 239.65654 227.31968 239.22802 224.58767 238.21485 221.54817 C 237.38087 219.04623 236.20798 216.50762 234.76424 214.0004 C 236.70218 213.37276 238.53836 212.63432 240.23685 211.78507 C 253.25438 205.27634 253.25438 194.7236 240.23685 188.21486 C 238.53836 187.36561 236.70217 186.62717 234.76421 185.99953 C 236.20797 183.49231 237.38086 180.95369 238.21484 178.45174 C 240.47024 171.68557 239.82843 166.44319 236.96246 163.39765 C 233.98007 160.22841 228.58918 159.43808 221.54819 161.78509 C 219.04624 162.61907 216.50763 163.79196 214.0004 165.23571 C 213.37277 163.29777 212.63433 161.46158 211.78508 159.76309 C 205.27635 146.74555 194.72362 146.74555 188.21488 159.76309 C 187.36564 161.46158 186.6272 163.29777 185.99956 165.23571 C 183.49234 163.79196 180.95373 162.61907 178.45179 161.78509 C 171.75455 159.55266 166.55021 160.15872 163.49146 162.95058 C 160.24424 165.91447 159.41516 171.34183 161.78514 178.45174 C 162.61912 180.9537 163.79201 183.49231 165.23576 185.99954 C 163.29782 186.62717 161.46164 187.36561 159.76315 188.21486 C 146.74562 194.7236 146.74562 205.27634 159.76315 211.78507 C 161.46164 212.63432 163.29782 213.37276 165.23576 214.0004 C 163.79201 216.50762 162.61912 219.04623 161.78514 221.54818 C 159.43813 228.58916 160.22846 233.98006 163.3977 236.96245 C 165.04341 238.51112 167.33057 239.41035 170.15301 239.55394 C 172.55378 239.67608 175.34182 239.2515 178.45179 238.21483 C 180.95373 237.38085 183.49234 236.20797 185.99956 234.76422 C 186.62719 236.70216 187.36563 238.53835 188.21488 240.23685 C 194.72362 253.25438 205.27635 253.25438 211.78508 240.23685 C 212.63433 238.53835 213.37278 236.70215 214.00041 234.7642 C 216.50764 236.20795 219.04625 237.38084 221.5482 238.21482 C 228.58918 240.56183 233.98008 239.7715 236.96246 236.60226 Z M 211.78509 188.21486 C 218.29385 194.72359 218.29385 205.27633 211.78509 211.78506 C 205.27636 218.29383 194.72362 218.29383 188.21489 211.78506 C 181.70613 205.27633 181.70613 194.72359 188.21489 188.21486 C 194.72362 181.70609 205.27636 181.70609 211.78509 188.21486" fill="black"/>
		</g>
		
		<g class="plant" id="plant2" style="stroke: white;">
			<path d="M 568.48123 118.301136 C 569.2705 117.462426 569.7224 116.2905 569.7807 114.84159 C 569.82827 113.65985 569.614 112.293845 569.10742 110.77409 C 568.69044 109.52312 568.104 108.25382 567.38212 107.00021 C 568.3511 106.686393 569.26918 106.31717 570.11843 105.89255 C 576.6272 102.63818 576.6272 97.361817 570.11843 94.10745 C 569.26918 93.682824 568.3511 93.313603 567.3821 92.999786 C 568.104 91.746175 568.69043 90.47687 569.10742 89.225894 C 570.23512 85.84281 569.91422 83.22162 568.48123 81.69885 C 566.99004 80.11423 564.2946 79.719067 560.7741 80.89257 C 559.52312 81.30956 558.2538 81.896007 557.0002 82.61788 C 556.6864 81.64891 556.31716 80.73082 555.89254 79.881574 C 552.63817 73.37281 547.3618 73.37281 544.10744 79.881574 C 543.68282 80.73082 543.3136 81.64891 542.99978 82.61788 C 541.74617 81.896004 540.47687 81.30956 539.2259 80.89257 C 535.87727 79.776357 533.2751 80.079385 531.74573 81.475315 C 530.12212 82.95726 529.70758 85.67094 530.89257 89.225894 C 531.30956 90.47687 531.896 91.746176 532.61788 92.99979 C 531.6489 93.313605 530.73082 93.682826 529.88157 94.10745 C 523.3728 97.361817 523.3728 102.63818 529.88157 105.89255 C 530.73082 106.31717 531.6489 106.68639 532.61788 107.00021 C 531.896 108.25382 531.30956 109.523124 530.89257 110.774096 C 529.71907 114.29459 530.11423 116.990036 531.69885 118.48123 C 532.5217 119.255566 533.6653 119.70518 535.0765 119.776975 C 536.2769 119.83804 537.6709 119.62575 539.2259 119.10742 C 540.47687 118.69043 541.74617 118.10399 542.99978 117.382115 C 543.3136 118.35109 543.68282 119.26918 544.10744 120.118426 C 547.3618 126.62719 552.63817 126.62719 555.89254 120.118426 C 556.31717 119.26918 556.6864 118.35108 557.0002 117.3821 C 558.25382 118.10398 559.52313 118.690426 560.7741 119.107415 C 564.2946 120.28092 566.99004 119.885756 568.48123 118.30114 Z M 555.89254 94.107446 C 559.14693 97.36181 559.14693 102.63818 555.89254 105.892544 C 552.63818 109.14693 547.3618 109.14693 544.10745 105.892544 C 540.85306 102.63818 540.85306 97.36181 544.10745 94.107446 C 547.3618 90.853064 552.63818 90.853064 555.89254 94.107446" fill="black"/>
		</g>
		<g class="plant" id="plant3" style="stroke: white;">
			<path d="M 568.48123 318.30114 C 569.2705 317.46243 569.7224 316.2905 569.7807 314.8416 C 569.82827 313.65985 569.614 312.29384 569.10742 310.7741 C 568.69044 309.52312 568.104 308.25382 567.38212 307.00021 C 568.3511 306.6864 569.26918 306.31717 570.11843 305.89255 C 576.6272 302.63818 576.6272 297.36182 570.11843 294.10745 C 569.26918 293.68282 568.3511 293.3136 567.3821 292.99979 C 568.104 291.74617 568.69043 290.47687 569.10742 289.2259 C 570.23512 285.84281 569.91422 283.22162 568.48123 281.69885 C 566.99004 280.11423 564.2946 279.71907 560.7741 280.89257 C 559.52312 281.30956 558.2538 281.896 557.0002 282.61788 C 556.6864 281.64891 556.31716 280.73082 555.89254 279.88157 C 552.63817 273.37281 547.3618 273.37281 544.10744 279.88157 C 543.68282 280.73082 543.3136 281.64891 542.99978 282.61788 C 541.74617 281.896 540.47687 281.30956 539.2259 280.89257 C 535.87727 279.77636 533.2751 280.07939 531.74573 281.47531 C 530.12212 282.95726 529.70758 285.67094 530.89257 289.2259 C 531.30956 290.47687 531.896 291.74618 532.61788 292.99979 C 531.6489 293.3136 530.73082 293.68283 529.88157 294.10745 C 523.3728 297.36182 523.3728 302.63818 529.88157 305.89255 C 530.73082 306.31717 531.6489 306.6864 532.61788 307.00021 C 531.896 308.25382 531.30956 309.52312 530.89257 310.7741 C 529.71907 314.29459 530.11423 316.99004 531.69885 318.48123 C 532.5217 319.25557 533.6653 319.70518 535.0765 319.77697 C 536.2769 319.83804 537.6709 319.62575 539.2259 319.10742 C 540.47687 318.69043 541.74617 318.10399 542.99978 317.38211 C 543.3136 318.35109 543.68282 319.26918 544.10744 320.11843 C 547.3618 326.6272 552.63817 326.6272 555.89254 320.11843 C 556.31717 319.26918 556.6864 318.35108 557.0002 317.3821 C 558.25382 318.10398 559.52313 318.69043 560.7741 319.10741 C 564.2946 320.28092 566.99004 319.88576 568.48123 318.30114 Z M 555.89254 294.10745 C 559.14693 297.36181 559.14693 302.63818 555.89254 305.89254 C 552.63818 309.14693 547.3618 309.14693 544.10745 305.89254 C 540.85306 302.63818 540.85306 297.36181 544.10745 294.10745 C 547.3618 290.85306 552.63818 290.85306 555.89254 294.10745" fill="black"/>
		</g>
	</g>
</svg>